<mxfile host="app.diagrams.net" agent="Mozilla/5.0 (Windows NT 10.0; Win64; x64; rv:136.0) Gecko/20100101 Firefox/136.0" version="26.1.3">
  <diagram id="C5RBs43oDa-KdzZeNtuy" name="Page-1">
    <mxGraphModel dx="1434" dy="774" grid="1" gridSize="10" guides="1" tooltips="1" connect="1" arrows="1" fold="1" page="1" pageScale="1" pageWidth="827" pageHeight="1169" math="0" shadow="0">
      <root>
        <mxCell id="WIyWlLk6GJQsqaUBKTNV-0" />
        <mxCell id="WIyWlLk6GJQsqaUBKTNV-1" parent="WIyWlLk6GJQsqaUBKTNV-0" />
        <mxCell id="ChaObStk8u_E6UQDPZgn-3" style="edgeStyle=orthogonalEdgeStyle;rounded=0;orthogonalLoop=1;jettySize=auto;html=1;entryX=0.5;entryY=0;entryDx=0;entryDy=0;" edge="1" parent="WIyWlLk6GJQsqaUBKTNV-1" source="ChaObStk8u_E6UQDPZgn-1" target="ChaObStk8u_E6UQDPZgn-2">
          <mxGeometry relative="1" as="geometry" />
        </mxCell>
        <mxCell id="ChaObStk8u_E6UQDPZgn-1" value="&lt;div&gt;input parameter&lt;/div&gt;&lt;div&gt;&lt;br&gt;&lt;/div&gt;&lt;div&gt;ipv4Input : String&lt;/div&gt;" style="shape=parallelogram;perimeter=parallelogramPerimeter;whiteSpace=wrap;html=1;fixedSize=1;" vertex="1" parent="WIyWlLk6GJQsqaUBKTNV-1">
          <mxGeometry x="342" y="100" width="144" height="60" as="geometry" />
        </mxCell>
        <mxCell id="ChaObStk8u_E6UQDPZgn-9" value="" style="edgeStyle=orthogonalEdgeStyle;rounded=0;orthogonalLoop=1;jettySize=auto;html=1;" edge="1" parent="WIyWlLk6GJQsqaUBKTNV-1" source="ChaObStk8u_E6UQDPZgn-2" target="ChaObStk8u_E6UQDPZgn-8">
          <mxGeometry relative="1" as="geometry" />
        </mxCell>
        <mxCell id="ChaObStk8u_E6UQDPZgn-2" value="&lt;div&gt;make an array of numericalSegments&amp;nbsp;&lt;/div&gt;&lt;div&gt;through spliting ipv4Input&amp;nbsp; at every &quot;.&quot;&lt;/div&gt;" style="rounded=0;whiteSpace=wrap;html=1;" vertex="1" parent="WIyWlLk6GJQsqaUBKTNV-1">
          <mxGeometry x="268" y="200" width="292" height="60" as="geometry" />
        </mxCell>
        <mxCell id="ChaObStk8u_E6UQDPZgn-7" value="&lt;div&gt;input parameters&lt;/div&gt;&lt;div&gt;&lt;br&gt;&lt;/div&gt;&lt;div&gt;ipv4Input : String&lt;/div&gt;" style="shape=parallelogram;perimeter=parallelogramPerimeter;whiteSpace=wrap;html=1;fixedSize=1;" vertex="1" parent="WIyWlLk6GJQsqaUBKTNV-1">
          <mxGeometry x="330" y="100" width="168" height="60" as="geometry" />
        </mxCell>
        <mxCell id="ChaObStk8u_E6UQDPZgn-11" style="edgeStyle=orthogonalEdgeStyle;rounded=0;orthogonalLoop=1;jettySize=auto;html=1;entryX=0.5;entryY=0;entryDx=0;entryDy=0;" edge="1" parent="WIyWlLk6GJQsqaUBKTNV-1" source="ChaObStk8u_E6UQDPZgn-8" target="ChaObStk8u_E6UQDPZgn-10">
          <mxGeometry relative="1" as="geometry" />
        </mxCell>
        <mxCell id="ChaObStk8u_E6UQDPZgn-15" value="" style="edgeStyle=orthogonalEdgeStyle;rounded=0;orthogonalLoop=1;jettySize=auto;html=1;" edge="1" parent="WIyWlLk6GJQsqaUBKTNV-1" source="ChaObStk8u_E6UQDPZgn-8" target="ChaObStk8u_E6UQDPZgn-14">
          <mxGeometry relative="1" as="geometry" />
        </mxCell>
        <mxCell id="ChaObStk8u_E6UQDPZgn-8" value="&lt;div&gt;are there exactly 4&amp;nbsp;&lt;/div&gt;&lt;div&gt;numerical segments?&lt;/div&gt;" style="rhombus;whiteSpace=wrap;html=1;rounded=0;" vertex="1" parent="WIyWlLk6GJQsqaUBKTNV-1">
          <mxGeometry x="308" y="300" width="212" height="120" as="geometry" />
        </mxCell>
        <mxCell id="ChaObStk8u_E6UQDPZgn-10" value="Return false" style="shape=parallelogram;perimeter=parallelogramPerimeter;whiteSpace=wrap;html=1;fixedSize=1;" vertex="1" parent="WIyWlLk6GJQsqaUBKTNV-1">
          <mxGeometry x="640" y="1050" width="120" height="60" as="geometry" />
        </mxCell>
        <mxCell id="ChaObStk8u_E6UQDPZgn-12" value="No" style="text;html=1;align=center;verticalAlign=middle;whiteSpace=wrap;rounded=0;" vertex="1" parent="WIyWlLk6GJQsqaUBKTNV-1">
          <mxGeometry x="510" y="330" width="60" height="30" as="geometry" />
        </mxCell>
        <mxCell id="ChaObStk8u_E6UQDPZgn-20" value="" style="edgeStyle=orthogonalEdgeStyle;rounded=0;orthogonalLoop=1;jettySize=auto;html=1;" edge="1" parent="WIyWlLk6GJQsqaUBKTNV-1" source="ChaObStk8u_E6UQDPZgn-14" target="ChaObStk8u_E6UQDPZgn-19">
          <mxGeometry relative="1" as="geometry" />
        </mxCell>
        <mxCell id="ChaObStk8u_E6UQDPZgn-14" value="&lt;div&gt;loop through all numerical segments &lt;br&gt;&lt;/div&gt;&lt;div&gt;as numericaSegment &lt;/div&gt;" style="whiteSpace=wrap;html=1;rounded=0;" vertex="1" parent="WIyWlLk6GJQsqaUBKTNV-1">
          <mxGeometry x="298" y="460" width="232" height="60" as="geometry" />
        </mxCell>
        <mxCell id="ChaObStk8u_E6UQDPZgn-16" value="Yes " style="text;html=1;align=center;verticalAlign=middle;whiteSpace=wrap;rounded=0;" vertex="1" parent="WIyWlLk6GJQsqaUBKTNV-1">
          <mxGeometry x="414" y="420" width="60" height="30" as="geometry" />
        </mxCell>
        <mxCell id="ChaObStk8u_E6UQDPZgn-21" style="edgeStyle=orthogonalEdgeStyle;rounded=0;orthogonalLoop=1;jettySize=auto;html=1;entryX=0.5;entryY=0;entryDx=0;entryDy=0;" edge="1" parent="WIyWlLk6GJQsqaUBKTNV-1" source="ChaObStk8u_E6UQDPZgn-19" target="ChaObStk8u_E6UQDPZgn-10">
          <mxGeometry relative="1" as="geometry" />
        </mxCell>
        <mxCell id="ChaObStk8u_E6UQDPZgn-28" style="edgeStyle=orthogonalEdgeStyle;rounded=0;orthogonalLoop=1;jettySize=auto;html=1;entryX=0.5;entryY=0;entryDx=0;entryDy=0;" edge="1" parent="WIyWlLk6GJQsqaUBKTNV-1" source="ChaObStk8u_E6UQDPZgn-19" target="ChaObStk8u_E6UQDPZgn-27">
          <mxGeometry relative="1" as="geometry" />
        </mxCell>
        <mxCell id="ChaObStk8u_E6UQDPZgn-19" value="&lt;div&gt;is it posible to cast the&amp;nbsp;&lt;/div&gt;&lt;div&gt;numericalSegment to a&amp;nbsp;&lt;/div&gt;&lt;div&gt;UByte ?&lt;/div&gt;" style="rhombus;whiteSpace=wrap;html=1;rounded=0;" vertex="1" parent="WIyWlLk6GJQsqaUBKTNV-1">
          <mxGeometry x="318" y="550" width="192" height="140" as="geometry" />
        </mxCell>
        <mxCell id="ChaObStk8u_E6UQDPZgn-22" value="No" style="text;html=1;align=center;verticalAlign=middle;whiteSpace=wrap;rounded=0;" vertex="1" parent="WIyWlLk6GJQsqaUBKTNV-1">
          <mxGeometry x="498" y="585" width="60" height="30" as="geometry" />
        </mxCell>
        <mxCell id="ChaObStk8u_E6UQDPZgn-24" value="Yes " style="text;html=1;align=center;verticalAlign=middle;whiteSpace=wrap;rounded=0;" vertex="1" parent="WIyWlLk6GJQsqaUBKTNV-1">
          <mxGeometry x="414" y="690" width="60" height="30" as="geometry" />
        </mxCell>
        <mxCell id="ChaObStk8u_E6UQDPZgn-29" style="edgeStyle=orthogonalEdgeStyle;rounded=0;orthogonalLoop=1;jettySize=auto;html=1;" edge="1" parent="WIyWlLk6GJQsqaUBKTNV-1" source="ChaObStk8u_E6UQDPZgn-27">
          <mxGeometry relative="1" as="geometry">
            <mxPoint x="700" y="1050" as="targetPoint" />
          </mxGeometry>
        </mxCell>
        <mxCell id="ChaObStk8u_E6UQDPZgn-34" value="" style="edgeStyle=orthogonalEdgeStyle;rounded=0;orthogonalLoop=1;jettySize=auto;html=1;" edge="1" parent="WIyWlLk6GJQsqaUBKTNV-1" source="ChaObStk8u_E6UQDPZgn-27" target="ChaObStk8u_E6UQDPZgn-33">
          <mxGeometry relative="1" as="geometry" />
        </mxCell>
        <mxCell id="ChaObStk8u_E6UQDPZgn-27" value="&lt;div&gt;does numericalSegment&amp;nbsp;&lt;/div&gt;&lt;div&gt;has a leading zero&amp;nbsp;&lt;/div&gt;&lt;div&gt;and is not equal to &quot;0&quot;&lt;/div&gt;" style="rhombus;whiteSpace=wrap;html=1;rounded=0;" vertex="1" parent="WIyWlLk6GJQsqaUBKTNV-1">
          <mxGeometry x="310" y="730" width="208" height="140" as="geometry" />
        </mxCell>
        <mxCell id="ChaObStk8u_E6UQDPZgn-30" value="Yes " style="text;html=1;align=center;verticalAlign=middle;whiteSpace=wrap;rounded=0;" vertex="1" parent="WIyWlLk6GJQsqaUBKTNV-1">
          <mxGeometry x="510" y="770" width="60" height="30" as="geometry" />
        </mxCell>
        <mxCell id="ChaObStk8u_E6UQDPZgn-32" value="No" style="text;html=1;align=center;verticalAlign=middle;whiteSpace=wrap;rounded=0;" vertex="1" parent="WIyWlLk6GJQsqaUBKTNV-1">
          <mxGeometry x="414" y="870" width="60" height="30" as="geometry" />
        </mxCell>
        <mxCell id="ChaObStk8u_E6UQDPZgn-37" value="" style="edgeStyle=orthogonalEdgeStyle;rounded=0;orthogonalLoop=1;jettySize=auto;html=1;" edge="1" parent="WIyWlLk6GJQsqaUBKTNV-1" source="ChaObStk8u_E6UQDPZgn-33" target="ChaObStk8u_E6UQDPZgn-36">
          <mxGeometry relative="1" as="geometry" />
        </mxCell>
        <mxCell id="ChaObStk8u_E6UQDPZgn-43" style="edgeStyle=orthogonalEdgeStyle;rounded=0;orthogonalLoop=1;jettySize=auto;html=1;entryX=0.5;entryY=0;entryDx=0;entryDy=0;" edge="1" parent="WIyWlLk6GJQsqaUBKTNV-1" source="ChaObStk8u_E6UQDPZgn-33" target="ChaObStk8u_E6UQDPZgn-42">
          <mxGeometry relative="1" as="geometry" />
        </mxCell>
        <mxCell id="ChaObStk8u_E6UQDPZgn-33" value="finished the loop? " style="rhombus;whiteSpace=wrap;html=1;rounded=0;" vertex="1" parent="WIyWlLk6GJQsqaUBKTNV-1">
          <mxGeometry x="338" y="900" width="152" height="100" as="geometry" />
        </mxCell>
        <mxCell id="ChaObStk8u_E6UQDPZgn-38" style="edgeStyle=orthogonalEdgeStyle;rounded=0;orthogonalLoop=1;jettySize=auto;html=1;entryX=0;entryY=0.5;entryDx=0;entryDy=0;" edge="1" parent="WIyWlLk6GJQsqaUBKTNV-1" source="ChaObStk8u_E6UQDPZgn-36" target="ChaObStk8u_E6UQDPZgn-19">
          <mxGeometry relative="1" as="geometry">
            <Array as="points">
              <mxPoint x="182" y="620" />
            </Array>
          </mxGeometry>
        </mxCell>
        <mxCell id="ChaObStk8u_E6UQDPZgn-36" value="next numericalSegment " style="whiteSpace=wrap;html=1;rounded=0;" vertex="1" parent="WIyWlLk6GJQsqaUBKTNV-1">
          <mxGeometry x="122" y="920" width="120" height="60" as="geometry" />
        </mxCell>
        <mxCell id="ChaObStk8u_E6UQDPZgn-42" value="Return true" style="shape=parallelogram;perimeter=parallelogramPerimeter;whiteSpace=wrap;html=1;fixedSize=1;" vertex="1" parent="WIyWlLk6GJQsqaUBKTNV-1">
          <mxGeometry x="354" y="1050" width="120" height="60" as="geometry" />
        </mxCell>
        <mxCell id="ChaObStk8u_E6UQDPZgn-44" value="No" style="text;html=1;align=center;verticalAlign=middle;whiteSpace=wrap;rounded=0;" vertex="1" parent="WIyWlLk6GJQsqaUBKTNV-1">
          <mxGeometry x="280" y="920" width="60" height="30" as="geometry" />
        </mxCell>
        <mxCell id="ChaObStk8u_E6UQDPZgn-46" value="Yes " style="text;html=1;align=center;verticalAlign=middle;whiteSpace=wrap;rounded=0;" vertex="1" parent="WIyWlLk6GJQsqaUBKTNV-1">
          <mxGeometry x="414" y="1000" width="60" height="30" as="geometry" />
        </mxCell>
        <mxCell id="ChaObStk8u_E6UQDPZgn-48" value="&lt;h1&gt;IPv4 Checker&lt;/h1&gt;&lt;div&gt;By Alqassim A. Hasan&lt;/div&gt;&lt;h1 style=&quot;margin-top: 0px;&quot;&gt;&lt;/h1&gt;&lt;p&gt;Checks if the given string represents a valid IPv4 address.&lt;br&gt;&lt;br&gt;&amp;nbsp;Criteria:&lt;br&gt;&amp;nbsp;* input must have four numerical segments separated by dots&lt;br&gt;&amp;nbsp;* each numerical segment shouldn&#39;t have a leading zero, unless it&#39;s 0&lt;br&gt;&amp;nbsp;* each numerical segment should be in range 0..255&lt;br&gt;&lt;br&gt;@param ipv4Input A string to be checked.&lt;br&gt;&lt;/p&gt;&lt;p&gt;@return `true` if the input is a valid IPv4 address, `false` otherwise.&lt;br&gt;&lt;/p&gt;&lt;p&gt;Example:&lt;br&gt;&lt;/p&gt;&lt;p&gt;```&lt;br&gt;&lt;/p&gt;&lt;p&gt;ipv4Checker(&quot;192.168.0.1&quot;)&lt;br&gt;&lt;/p&gt;&lt;p&gt;&amp;nbsp;// true&lt;br&gt;&lt;/p&gt;&lt;p&gt;ipv4Checker(&quot;192.-2.0.1&quot;)&lt;br&gt;&lt;/p&gt;&lt;p&gt;&amp;nbsp;// false&lt;br&gt;&lt;/p&gt;&lt;p&gt;```&lt;/p&gt;&lt;p&gt;&lt;br&gt;&lt;/p&gt;" style="text;html=1;whiteSpace=wrap;overflow=hidden;rounded=0;fillColor=default;spacingLeft=10;spacingBottom=0;spacingRight=10;strokeColor=default;" vertex="1" parent="WIyWlLk6GJQsqaUBKTNV-1">
          <mxGeometry x="20" y="20" width="220" height="490" as="geometry" />
        </mxCell>
      </root>
    </mxGraphModel>
  </diagram>
</mxfile>
